<svg width="396" height="269" viewBox="0 0 396 269" fill="none" xmlns="http://www.w3.org/2000/svg">
<path d="M130.247 248.945L130.812 249.228C135.341 251.485 139.787 252.532 144.083 252.398C146.603 252.309 148.324 251.833 150.317 251.282C152.241 250.752 154.421 250.15 157.597 249.809C164.161 249.108 169.235 250.125 171.672 250.617L172.367 250.753C187.971 253.661 222.084 238.385 223.528 237.733C244.431 228.302 265.671 215.358 286.656 199.257C294.079 193.561 303.567 191.129 312.691 192.58C324.219 194.412 336.057 197.193 347.508 199.884C356.289 201.946 365.36 204.077 373.992 205.696C391.572 192.64 396.221 164.68 384.133 144.773C375.087 143.788 365.433 143.718 356.085 143.653C339.151 143.533 321.639 143.409 305.935 138.012C303.019 136.988 300.103 135.928 297.171 134.861C273.323 126.189 248.661 117.22 224.551 128.51L224.287 128.616C207.675 133.99 190.085 139.228 172.005 144.184C169.087 144.984 166.023 145.63 162.777 146.314C154.731 148.012 146.415 149.765 140.524 153.956C139.26 156.124 138.963 157.749 139.641 158.786C143.78 165.114 174.387 160.814 190.827 158.502C199.139 157.333 205.225 156.482 208.137 156.638C208.819 156.561 209.503 156.464 210.176 156.366C213.532 155.886 217.009 155.389 219.092 157.673C220.971 159.734 220.511 162.813 220 164.949L219.808 165.465C215.025 174.737 206.043 181.038 197.353 187.132C193.705 189.69 190.26 192.108 187.172 194.697L187.021 194.813C181.004 199.057 175.008 203.742 169.209 208.272C151.625 222.012 133.443 236.217 110.712 241.617C105.785 242.788 101.268 245.277 101.233 246.838C101.223 247.324 101.793 247.946 102.068 248.246C103.803 250.145 107.18 250.309 116.44 249.844C120.827 249.624 125.259 249.338 129.617 248.996L130.247 248.945ZM143.277 256.973C138.723 256.973 134.047 255.836 129.353 253.589C125.153 253.914 120.889 254.186 116.669 254.397C107.144 254.876 102.023 254.953 98.704 251.325C98.1347 250.702 96.6254 249.053 96.676 246.74C96.8107 240.545 107.515 237.692 109.657 237.182C131.42 232.01 149.204 218.117 166.403 204.68C172.22 200.134 178.235 195.436 184.316 191.142C187.537 188.449 191.196 185.882 194.736 183.4C202.889 177.681 211.319 171.769 215.627 163.624C216.144 161.292 215.728 160.75 215.723 160.745C215.267 160.244 212.264 160.673 210.821 160.881C210.033 160.993 209.231 161.106 208.435 161.192L208.227 161.216L208.017 161.2C205.68 161.022 199.084 161.945 191.463 163.016C164.155 166.856 141.119 169.374 135.827 161.281C134.057 158.577 134.408 155.182 136.868 151.189L137.099 150.814L137.452 150.553C144.16 145.582 153.147 143.688 161.837 141.853C165.013 141.184 168.013 140.552 170.801 139.786C188.765 134.862 206.241 129.66 222.748 124.321C248.524 112.324 274.048 121.601 298.728 130.577C301.644 131.637 304.547 132.692 307.431 133.704C322.416 138.856 339.548 138.977 356.117 139.094C365.963 139.164 376.144 139.236 385.752 140.369L386.821 140.494L387.403 141.402C401.637 163.6 396.236 195.645 375.845 209.98L375.063 210.529L374.123 210.357C365.097 208.698 355.627 206.473 346.465 204.321C335.096 201.652 323.337 198.888 311.975 197.081C304.081 195.824 295.865 197.938 289.431 202.876C268.167 219.189 246.625 232.313 225.404 241.889C221.651 243.582 188.244 258.345 171.529 255.234L170.772 255.085C168.557 254.64 163.952 253.71 158.084 254.341C155.277 254.644 153.373 255.17 151.531 255.677C149.355 256.278 147.3 256.846 144.245 256.954C143.923 256.966 143.601 256.973 143.277 256.973Z" fill="#854B39"/>
<path d="M230.801 120.655C217.991 99.9268 195.059 86.0829 168.949 86.0829C128.891 86.0829 96.2935 118.664 96.2935 158.739C96.2935 187.81 113.467 212.946 138.191 224.542C139.879 225.331 141.611 226.06 143.373 226.715C145 225.696 146.595 224.647 148.191 223.584C146.367 223.006 144.573 222.338 142.827 221.623C118.208 211.35 100.852 187.035 100.852 158.739C100.852 121.187 131.399 90.6415 168.949 90.6415C193.083 90.6415 214.312 103.255 226.409 122.22C227.231 123.512 228.02 124.835 228.765 126.187C230.224 125.624 231.668 125.138 233.127 124.712C232.397 123.33 231.621 121.978 230.801 120.655Z" fill="#854B39"/>
<path d="M150.243 222.103C147.645 223.907 145.004 225.653 142.304 227.311C140.383 226.973 138.504 226.343 136.655 225.536C133.837 224.303 131.109 222.631 128.468 220.928L110.699 209.469C109.069 208.412 105.079 206.139 103.317 207.855C103.024 208.148 102.247 208.911 103.053 211.068C103.612 212.58 104.815 214.34 106.34 215.896L122.511 232.417L125.24 235.205C125.445 235.411 125.592 235.645 125.695 235.895C124.271 236.481 122.833 237.04 121.365 237.553L117.961 234.061L112.929 228.925L105.02 220.84L103.2 218.977C102.056 217.817 99.9866 215.441 98.9306 212.609C97.7573 209.484 98.2266 206.681 100.237 204.715C101.895 203.087 105.783 201.061 113.091 205.771L130.859 217.231C134.308 219.461 137.903 221.604 141.483 222.601C143.596 223.203 145.723 223.379 147.807 222.924C148.643 222.748 149.451 222.455 150.243 222.103Z" fill="#854B39"/>
<path d="M114.484 227.976C114.013 229.115 112.721 229.663 111.597 229.238C111.567 229.238 111.536 229.222 111.505 229.207C99.3173 224.162 92.92 221.29 90.0934 219.602C89.9414 219.496 87.2974 217.703 83.3307 217.535H83.088C81.264 217.763 80.6254 219.222 80.428 219.83C80.0934 220.939 80.1854 222.627 81.5227 223.782L101.248 240.072L102.645 241.227C103.619 242.032 103.755 243.462 102.949 244.434C102.92 244.479 102.873 244.526 102.828 244.555C102.707 244.647 102.585 244.752 102.479 244.859C102.099 245.118 101.657 245.255 101.203 245.255C100.685 245.255 100.169 245.087 99.7427 244.738L97.98 243.294L78.5894 227.276C76.0814 225.103 75.1093 221.67 76.0813 218.492C77.008 215.468 79.4854 213.371 82.556 213.022C82.8894 212.976 83.224 212.962 83.5427 212.976C88.7254 213.204 92.1907 215.499 92.5707 215.772C94.4693 216.912 98.6493 218.812 103.405 220.863C106.597 222.247 110.047 223.675 113.237 224.998C114.408 225.483 114.955 226.82 114.484 227.976Z" fill="#854B39"/>
<path d="M9.576 169.276C6.80933 169.276 4.55867 171.526 4.55867 174.293C4.55867 177.058 6.80933 179.309 9.576 179.309C12.3427 179.309 14.592 177.058 14.592 174.293C14.592 171.526 12.3427 169.276 9.576 169.276ZM9.576 183.869C4.296 183.869 0 179.573 0 174.293C0 169.012 4.296 164.717 9.576 164.717C14.856 164.717 19.152 169.012 19.152 174.293C19.152 179.573 14.856 183.869 9.576 183.869Z" fill="#854B39"/>
<path d="M312.265 88.6093C309.499 88.6093 307.247 90.86 307.247 93.6266C307.247 96.3933 309.499 98.644 312.265 98.644C315.031 98.644 317.281 96.3933 317.281 93.6266C317.281 90.86 315.031 88.6093 312.265 88.6093ZM312.265 103.203C306.984 103.203 302.688 98.9066 302.688 93.6266C302.688 88.3466 306.984 84.0506 312.265 84.0506C317.545 84.0506 321.84 88.3466 321.84 93.6266C321.84 98.9066 317.545 103.203 312.265 103.203Z" fill="#854B39"/>
<path d="M255.856 243.64C253.089 243.64 250.839 245.891 250.839 248.657C250.839 251.423 253.089 253.675 255.856 253.675C258.623 253.675 260.872 251.423 260.872 248.657C260.872 245.891 258.623 243.64 255.856 243.64ZM255.856 258.233C250.576 258.233 246.279 253.937 246.279 248.657C246.279 243.376 250.576 239.081 255.856 239.081C261.136 239.081 265.431 243.376 265.431 248.657C265.431 253.937 261.136 258.233 255.856 258.233Z" fill="#854B39"/>
<path d="M345.193 116.112C345.193 117.979 343.68 119.491 341.813 119.491C339.948 119.491 338.435 117.979 338.435 116.112C338.435 114.245 339.948 112.732 341.813 112.732C343.68 112.732 345.193 114.245 345.193 116.112Z" fill="#854B39"/>
<path d="M292.604 218.071C292.604 219.937 291.091 221.451 289.224 221.451C287.357 221.451 285.845 219.937 285.845 218.071C285.845 216.204 287.357 214.691 289.224 214.691C291.091 214.691 292.604 216.204 292.604 218.071Z" fill="#854B39"/>
<path d="M267.097 52.288C267.097 54.1546 265.584 55.668 263.717 55.668C261.851 55.668 260.337 54.1546 260.337 52.288C260.337 50.4213 261.851 48.908 263.717 48.908C265.584 48.908 267.097 50.4213 267.097 52.288Z" fill="#854B39"/>
<path d="M66.16 45.9213C66.16 47.7879 64.6467 49.3013 62.78 49.3013C60.9134 49.3013 59.4014 47.7879 59.4014 45.9213C59.4014 44.0559 60.9134 42.5426 62.78 42.5426C64.6467 42.5426 66.16 44.0559 66.16 45.9213Z" fill="#854B39"/>
<path d="M93.4507 265.045C93.4507 266.912 91.9373 268.425 90.0707 268.425C88.204 268.425 86.6907 266.912 86.6907 265.045C86.6907 263.18 88.204 261.667 90.0707 261.667C91.9373 261.667 93.4507 263.18 93.4507 265.045Z" fill="#854B39"/>
<path d="M311.235 237.817C315.741 240.065 319.507 243.996 321.805 248.873C323.996 244.153 327.801 240.224 332.516 237.853C327.841 235.62 324.061 231.736 321.845 226.904C319.665 231.684 315.901 235.569 311.235 237.817ZM321.84 256.28C320.497 256.28 319.316 255.397 318.897 254.084C317.041 247.526 312.24 242.462 306.341 240.798C304.948 240.314 304.105 239.126 304.105 237.798C304.105 236.469 304.948 235.281 306.205 234.84L306.363 234.792C312.476 233.13 317.263 228.097 318.857 221.654C319.315 220.198 320.497 219.317 321.84 219.317C321.84 219.317 321.841 219.317 321.843 219.317C323.187 219.318 324.367 220.201 324.783 221.514C326.416 228.097 331.203 233.13 337.316 234.792L337.469 234.838C338.727 235.277 339.573 236.465 339.575 237.794C339.576 239.125 338.732 240.314 337.472 240.756C331.233 242.696 326.413 247.745 324.817 253.961C324.367 255.394 323.187 256.277 321.843 256.28C321.841 256.28 321.84 256.28 321.84 256.28Z" fill="#854B39"/>
<path d="M351.221 72.752C355.729 75.0027 359.493 78.9307 361.792 83.808C363.981 79.0894 367.787 75.16 372.503 72.788C367.828 70.5534 364.048 66.6707 361.833 61.8387C359.653 66.6174 355.888 70.504 351.221 72.752ZM361.825 91.2134C360.484 91.2134 359.303 90.3334 358.884 89.0214C357.029 82.4627 352.227 77.3987 346.328 75.7334C344.936 75.2507 344.092 74.0614 344.092 72.7334C344.092 71.404 344.936 70.216 346.193 69.7747L346.349 69.7267C352.463 68.064 357.249 63.0307 358.844 56.5894C359.303 55.1334 360.484 54.252 361.825 54.252C363.168 54.252 364.349 55.1334 364.768 56.4454C366.403 63.0307 371.189 68.064 377.303 69.7267L377.457 69.7747C378.715 70.2134 379.56 71.4027 379.56 72.7307C379.561 74.0614 378.717 75.2507 377.459 75.6907C371.22 77.6307 366.399 82.68 364.804 88.896C364.349 90.3334 363.168 91.2134 361.825 91.2134Z" fill="#854B39"/>
<path d="M31.2387 247.177C35.7454 249.428 39.512 253.356 41.808 258.235C43.9974 253.515 47.8027 249.587 52.5187 247.212C47.844 244.979 44.064 241.095 41.8493 236.263C39.6693 241.043 35.9054 244.928 31.2387 247.177ZM41.8414 265.639C40.5 265.639 39.3173 264.759 38.9 263.447C37.0453 256.887 32.2427 251.823 26.3454 250.157C24.9534 249.677 24.1067 248.488 24.1067 247.159C24.1067 245.827 24.9534 244.639 26.2134 244.2L26.3653 244.152C32.48 242.489 37.2667 237.456 38.86 231.013C39.3174 229.557 40.5 228.677 41.8414 228.677C43.184 228.677 44.3667 229.557 44.784 230.869C46.4173 237.456 51.2054 242.489 57.3187 244.152L57.4707 244.2C58.7307 244.639 59.5774 245.827 59.5774 247.159C59.5774 248.488 58.7307 249.677 57.4707 250.116C51.2347 252.056 46.416 257.107 44.82 263.321C44.3667 264.759 43.184 265.639 41.8414 265.639Z" fill="#854B39"/>
<path d="M88.2732 213.432C87.5319 213.432 86.8039 213.071 86.3666 212.404C85.6746 211.352 85.9666 209.94 87.0186 209.248L105.981 196.775C107.035 196.084 108.447 196.373 109.139 197.425C109.831 198.477 109.539 199.891 108.487 200.583L89.5239 213.056C89.1372 213.309 88.7026 213.432 88.2732 213.432Z" fill="#854B39"/>
<path d="M62.7347 230.229C61.9933 230.229 61.2667 229.869 60.828 229.203C60.136 228.151 60.428 226.737 61.48 226.047L87.0187 209.248C88.0707 208.556 89.484 208.847 90.176 209.9C90.8667 210.952 90.576 212.364 89.524 213.056L63.9853 229.855C63.6 230.108 63.1653 230.229 62.7347 230.229Z" fill="#854B39"/>
<path d="M78.0413 192.839C77.1027 192.839 76.2227 192.256 75.892 191.32C75.472 190.134 76.0933 188.831 77.28 188.411L98.6773 180.838C99.864 180.415 101.168 181.038 101.588 182.226C102.008 183.412 101.385 184.715 100.199 185.135L78.8013 192.708C78.5507 192.798 78.2933 192.839 78.0413 192.839Z" fill="#854B39"/>
<path d="M49.2254 203.037C48.2867 203.037 47.4067 202.453 47.0761 201.517C46.6561 200.332 47.2774 199.028 48.4641 198.608L69.8614 191.036C71.0507 190.616 72.3507 191.236 72.7707 192.424C73.1907 193.61 72.5694 194.913 71.3827 195.333L49.9854 202.906C49.7347 202.996 49.4774 203.037 49.2254 203.037Z" fill="#854B39"/>
<path d="M20.4454 213.224C19.5067 213.224 18.6267 212.64 18.296 211.704C17.876 210.519 18.4974 209.215 19.684 208.795L41.0814 201.223C42.2707 200.803 43.572 201.423 43.992 202.611C44.412 203.797 43.7894 205.1 42.6027 205.52L21.2054 213.093C20.9547 213.183 20.6974 213.224 20.4454 213.224Z" fill="#854B39"/>
<path d="M73.036 170.392C71.8773 170.392 70.8866 169.513 70.7693 168.336C70.6453 167.084 71.5613 165.968 72.8146 165.844L95.4013 163.612C96.6653 163.489 97.7706 164.403 97.8946 165.656C98.0186 166.909 97.1026 168.025 95.8506 168.149L73.2626 170.381C73.1853 170.388 73.1106 170.392 73.036 170.392Z" fill="#854B39"/>
<path d="M42.6159 173.398C41.4586 173.398 40.4666 172.52 40.3506 171.342C40.2266 170.09 41.1413 168.974 42.3946 168.85L72.8146 165.844C74.0639 165.722 75.1826 166.634 75.3066 167.888C75.4306 169.141 74.516 170.257 73.2626 170.381L42.8426 173.388C42.7666 173.394 42.6906 173.398 42.6159 173.398Z" fill="#854B39"/>
<path d="M96.02 150.639C95.912 150.639 95.8013 150.632 95.692 150.616L73.2267 147.377C71.98 147.199 71.1147 146.043 71.2947 144.796C71.4747 143.549 72.632 142.691 73.876 142.865L96.3427 146.103C97.588 146.283 98.4533 147.439 98.2733 148.684C98.1093 149.82 97.1347 150.639 96.02 150.639Z" fill="#854B39"/>
<path d="M65.7654 146.279C65.6561 146.279 65.5467 146.271 65.4374 146.255L42.9707 143.017C41.7241 142.837 40.8601 141.681 41.0401 140.435C41.2187 139.188 42.3787 138.327 43.6214 138.504L66.0867 141.741C67.3334 141.921 68.1974 143.077 68.0187 144.324C67.8547 145.46 66.8801 146.279 65.7654 146.279Z" fill="#854B39"/>
<path d="M35.5479 141.923C35.4399 141.923 35.3292 141.915 35.2199 141.899L12.7532 138.662C11.5065 138.482 10.6425 137.326 10.8225 136.08C11.0025 134.834 12.1585 133.971 13.4039 134.148L35.8692 137.387C37.1159 137.566 37.9812 138.722 37.8012 139.968C37.6372 141.104 36.6625 141.923 35.5479 141.923Z" fill="#854B39"/>
<path d="M100.588 133.723C100.304 133.723 100.015 133.669 99.7334 133.555L78.6961 125.035C77.5281 124.561 76.9654 123.232 77.4387 122.067C77.9121 120.899 79.2414 120.336 80.4067 120.809L101.445 129.329C102.612 129.803 103.175 131.132 102.701 132.299C102.343 133.185 101.489 133.723 100.588 133.723Z" fill="#854B39"/>
<path d="M84.0467 127.022C83.7614 127.022 83.472 126.969 83.192 126.854L50.364 113.56C49.1974 113.086 48.6347 111.757 49.1067 110.592C49.58 109.424 50.9107 108.861 52.0747 109.334L84.9027 122.63C86.0694 123.102 86.632 124.432 86.16 125.598C85.8 126.485 84.9467 127.022 84.0467 127.022Z" fill="#854B39"/>
<path d="M109.076 118.391C108.612 118.391 108.145 118.251 107.741 117.959L89.3534 104.651C88.3334 103.912 88.1054 102.487 88.8427 101.467C89.5827 100.448 91.0067 100.219 92.0267 100.957L110.415 114.264C111.435 115.003 111.663 116.428 110.924 117.448C110.479 118.064 109.781 118.391 109.076 118.391Z" fill="#854B39"/>
<path d="M84.3134 100.469C83.8494 100.469 83.3827 100.329 82.9787 100.036L64.5907 86.7292C63.5707 85.9906 63.3427 84.5652 64.08 83.5452C64.82 82.5266 66.244 82.2972 67.264 83.0346L85.652 96.3426C86.672 97.0812 86.9 98.5066 86.1627 99.5266C85.716 100.141 85.0187 100.469 84.3134 100.469Z" fill="#854B39"/>
<path d="M59.5801 82.5693C59.1174 82.5693 58.6494 82.4293 58.2454 82.1373L39.8588 68.8293C38.8388 68.0907 38.6108 66.6653 39.3481 65.6467C40.0868 64.6267 41.5134 64.3973 42.5321 65.136L60.9188 78.4427C61.9388 79.1813 62.1668 80.6067 61.4294 81.6267C60.9828 82.2427 60.2868 82.5693 59.5801 82.5693Z" fill="#854B39"/>
<path d="M120.991 105.536C120.343 105.536 119.7 105.263 119.249 104.729L104.581 87.4081C103.767 86.4481 103.887 85.0095 104.847 84.1961C105.808 83.3828 107.247 83.5015 108.06 84.4628L122.728 101.784C123.543 102.744 123.423 104.183 122.461 104.996C122.033 105.359 121.511 105.536 120.991 105.536Z" fill="#854B39"/>
<path d="M107.884 90.0601C107.236 90.0601 106.593 89.7867 106.143 89.2534L84.8267 64.0814C84.012 63.1214 84.132 61.6827 85.0933 60.8694C86.0533 60.0561 87.492 60.1761 88.3053 61.1361L109.621 86.3081C110.436 87.2681 110.316 88.7067 109.355 89.5201C108.927 89.8827 108.404 90.0601 107.884 90.0601Z" fill="#854B39"/>
<path d="M135.631 95.9067C134.792 95.9067 133.985 95.4427 133.588 94.6414L123.491 74.3134C122.931 73.1854 123.391 71.8174 124.517 71.2574C125.645 70.6987 127.013 71.1587 127.573 72.2841L137.671 92.6121C138.231 93.7401 137.771 95.1094 136.644 95.6681C136.317 95.8294 135.971 95.9067 135.631 95.9067Z" fill="#854B39"/>
<path d="M122.033 68.5308C121.195 68.5308 120.388 68.0668 119.989 67.2641L109.893 46.9361C109.333 45.8081 109.793 44.4401 110.92 43.8814C112.047 43.3201 113.416 43.7801 113.976 44.9081L124.072 65.2361C124.633 66.3641 124.173 67.7321 123.045 68.2921C122.72 68.4534 122.373 68.5308 122.033 68.5308Z" fill="#854B39"/>
<path d="M108.452 41.188C107.613 41.188 106.807 40.724 106.409 39.9227L96.312 19.5933C95.752 18.4653 96.212 17.0973 97.3386 16.5373C98.468 15.9773 99.836 16.4373 100.395 17.564L110.492 37.8933C111.052 39.0213 110.592 40.3893 109.465 40.9493C109.139 41.1107 108.792 41.188 108.452 41.188Z" fill="#854B39"/>
<path d="M152.148 90.0615C151.104 90.0615 150.161 89.3375 149.925 88.2762L144.987 66.1215C144.712 64.8935 145.487 63.6762 146.715 63.4015C147.944 63.1255 149.161 63.9015 149.436 65.1309L154.375 87.2855C154.649 88.5135 153.875 89.7309 152.645 90.0055C152.479 90.0429 152.312 90.0615 152.148 90.0615Z" fill="#854B39"/>
<path d="M147.913 71.0664C146.869 71.0664 145.928 70.3424 145.691 69.2811L138.335 36.2864C138.061 35.0571 138.836 33.8397 140.064 33.5651C141.297 33.2891 142.511 34.0651 142.784 35.2944L150.14 68.2904C150.415 69.5184 149.64 70.7358 148.412 71.0104C148.244 71.0478 148.077 71.0664 147.913 71.0664Z" fill="#854B39"/>
<path d="M169.589 88.3359C169.572 88.3359 169.555 88.3359 169.537 88.3359C168.279 88.3066 167.281 87.2653 167.309 86.0053L167.816 63.3133C167.844 62.0719 168.859 61.0853 170.095 61.0853C170.112 61.0853 170.128 61.0853 170.147 61.0853C171.405 61.1133 172.403 62.156 172.373 63.416L171.867 86.1079C171.84 87.3479 170.824 88.3359 169.589 88.3359Z" fill="#854B39"/>
<path d="M170.272 57.7759C170.255 57.7759 170.237 57.7759 170.22 57.7759C168.961 57.7465 167.964 56.7039 167.992 55.4452L168.499 32.7532C168.527 31.5119 169.541 30.5252 170.777 30.5252C170.795 30.5252 170.811 30.5252 170.829 30.5252C172.088 30.5532 173.085 31.5959 173.056 32.8559L172.549 55.5479C172.523 56.7879 171.507 57.7759 170.272 57.7759Z" fill="#854B39"/>
<path d="M170.953 27.2534C170.936 27.2534 170.919 27.2534 170.901 27.2534C169.643 27.2254 168.645 26.1828 168.673 24.9228L169.18 2.23076C169.208 0.972097 170.183 -0.0598981 171.511 0.00276855C172.769 0.0307685 173.765 1.07343 173.737 2.33343L173.231 25.0254C173.204 26.2668 172.188 27.2534 170.953 27.2534Z" fill="#854B39"/>
<path d="M186.935 90.8374C186.737 90.8374 186.537 90.8121 186.339 90.7587C185.124 90.4294 184.404 89.1774 184.732 87.9627L190.656 66.0507C190.985 64.8347 192.232 64.1187 193.452 64.4454C194.667 64.7734 195.385 66.0254 195.057 67.2414L189.135 89.1521C188.859 90.1681 187.94 90.8374 186.935 90.8374Z" fill="#854B39"/>
<path d="M192.319 70.9199C192.121 70.9199 191.921 70.8946 191.721 70.8413C190.507 70.5119 189.788 69.2599 190.116 68.0453L198.632 36.5413C198.961 35.3253 200.209 34.6079 201.428 34.9359C202.643 35.2639 203.361 36.5159 203.033 37.7319L194.517 69.2359C194.243 70.2506 193.323 70.9199 192.319 70.9199Z" fill="#854B39"/>
<path d="M203.173 97.416C202.8 97.416 202.421 97.324 202.072 97.1307C200.971 96.52 200.572 95.132 201.181 94.0307L212.176 74.1733C212.787 73.0707 214.173 72.6747 215.275 73.2827C216.376 73.8934 216.775 75.2814 216.165 76.3827L205.171 96.24C204.755 96.9907 203.976 97.416 203.173 97.416Z" fill="#854B39"/>
<path d="M217.98 70.6733C217.607 70.6733 217.228 70.5813 216.877 70.3867C215.776 69.7773 215.377 68.3893 215.987 67.288L226.981 47.4307C227.592 46.3293 228.979 45.932 230.08 46.54C231.181 47.1507 231.58 48.5373 230.971 49.6387L219.976 69.496C219.559 70.248 218.781 70.6733 217.98 70.6733Z" fill="#854B39"/>
<path d="M232.769 43.9624C232.395 43.9624 232.016 43.8704 231.667 43.6771C230.565 43.0678 230.165 41.6798 230.776 40.5784L241.769 20.7211C242.381 19.6184 243.769 19.2224 244.868 19.8304C245.969 20.4397 246.369 21.8277 245.759 22.9291L234.765 42.7864C234.348 43.5384 233.571 43.9624 232.769 43.9624Z" fill="#854B39"/>
<path d="M217.373 107.688C216.819 107.688 216.263 107.488 215.824 107.081C214.901 106.225 214.845 104.784 215.701 103.86L231.128 87.2107C231.985 86.2853 233.425 86.2333 234.349 87.088C235.272 87.944 235.328 89.3853 234.472 90.3093L219.045 106.959C218.596 107.443 217.984 107.688 217.373 107.688Z" fill="#854B39"/>
<path d="M231.427 92.52C230.872 92.52 230.317 92.32 229.879 91.9134C228.955 91.0574 228.9 89.616 229.755 88.692L251.903 64.788C252.763 63.864 254.201 63.8107 255.125 64.6654C256.048 65.5214 256.103 66.9627 255.248 67.8867L233.1 91.7907C232.651 92.2747 232.039 92.52 231.427 92.52Z" fill="#854B39"/>
<path d="M228.7 121.062C227.959 121.062 227.232 120.701 226.795 120.035C226.103 118.984 226.393 117.571 227.445 116.877L246.409 104.404C247.46 103.715 248.872 104.002 249.565 105.056C250.257 106.108 249.967 107.521 248.915 108.213L229.951 120.688C229.565 120.941 229.131 121.062 228.7 121.062Z" fill="#854B39"/>
<path d="M254.237 104.264C253.497 104.264 252.769 103.903 252.332 103.238C251.64 102.186 251.932 100.772 252.984 100.08L271.947 87.6068C272.997 86.9162 274.412 87.2055 275.104 88.2588C275.795 89.3095 275.504 90.7228 274.452 91.4162L255.489 103.889C255.103 104.143 254.668 104.264 254.237 104.264Z" fill="#854B39"/>
<path d="M279.744 87.4868C279.004 87.4868 278.276 87.1255 277.839 86.4602C277.147 85.4082 277.439 83.9948 278.491 83.3028L297.453 70.8282C298.504 70.1388 299.917 70.4268 300.611 71.4802C301.301 72.5322 301.011 73.9455 299.959 74.6375L280.995 87.1122C280.609 87.3655 280.175 87.4868 279.744 87.4868Z" fill="#854B39"/>
<path d="M287.471 118.861L277.44 122.417L269.812 125.108C266.893 124.408 263.961 123.816 261.028 123.375L269.568 120.351L285.951 114.561C287.136 114.136 288.443 114.759 288.853 115.944C289.279 117.129 288.656 118.436 287.471 118.861Z" fill="#854B39"/>
<path d="M127.497 253.723C126.635 253.723 125.809 253.232 125.424 252.396C124.899 251.252 125.4 249.899 126.544 249.372L152.348 237.507L181.296 220.108C182.373 219.461 183.775 219.808 184.423 220.888C185.072 221.967 184.723 223.368 183.643 224.016L154.367 241.596L128.448 253.516C128.14 253.656 127.816 253.723 127.497 253.723Z" fill="#854B39"/>
<path d="M158.26 253.71C157.391 253.71 156.561 253.212 156.18 252.368C155.663 251.221 156.175 249.87 157.323 249.353L177.608 240.214L197.225 228.789C198.312 228.152 199.709 228.524 200.343 229.612C200.976 230.698 200.608 232.094 199.52 232.728L179.589 244.324L159.195 253.509C158.891 253.648 158.573 253.71 158.26 253.71Z" fill="#854B39"/>
<path d="M224.392 163.823C223.992 163.823 223.587 163.717 223.22 163.497C221.961 162.743 220.624 162.123 219.24 161.653C217.273 160.987 215.217 160.623 213.125 160.572C211.867 160.541 210.872 159.496 210.901 158.237C210.932 156.997 211.945 156.013 213.179 156.013C213.199 156.013 213.217 156.013 213.236 156.013C215.788 156.076 218.301 156.521 220.704 157.336C222.393 157.909 224.031 158.667 225.565 159.588C226.645 160.236 226.996 161.636 226.347 162.716C225.92 163.428 225.164 163.823 224.392 163.823Z" fill="#854B39"/>
</svg>
