<svg width="40" height="24" viewBox="0 0 40 24" fill="none" xmlns="http://www.w3.org/2000/svg">
<path d="M24.7483 0.191602C24.2869 0.415552 23.9116 0.799465 23.7239 1.23937C23.6067 1.51131 23.5754 1.91122 23.5441 3.83879C23.4972 5.99031 23.4894 6.13427 23.3252 6.4462C23.1453 6.79813 22.7778 7.15005 22.4494 7.30201C22.3008 7.374 19.4389 7.40599 11.8072 7.43798L1.36839 7.47797L1.04779 7.65393C0.633368 7.87788 0.211123 8.38177 0.0938324 8.78968C0.0312775 8.99763 0 10.0454 0 12.0849C0 15.0683 0 15.0763 0.187665 15.4762C0.406607 15.9481 0.781936 16.332 1.212 16.532C1.50914 16.6679 2.12687 16.6759 11.9636 16.7159C23.3877 16.7559 22.6058 16.7239 23.0358 17.2118C23.4815 17.7077 23.4972 17.7877 23.5441 20.1951C23.591 22.7626 23.6223 22.8905 24.24 23.4584C24.8578 24.0343 25.671 24.1542 26.3904 23.8023C26.6093 23.6904 29.6667 21.3069 33.1854 18.4995C40.3948 12.7648 39.996 13.1327 39.996 12.0769C39.9882 11.3651 39.7849 10.9972 39.0734 10.4053C36.4617 8.20581 26.6328 0.271583 26.3904 0.15161C25.9368 -0.0643417 25.2409 -0.048344 24.7483 0.191602Z" fill="#854B39"/>
</svg>
